# xmcd
#
# Track frame offsets:
# 182
# 10862
# 22845
# 34122
# 46532
# 56305
# 66097
# 77210
# 87917
# 98545
# 110022
# 122155
# 133492
# 144845
#
# Disc length: 2090 seconds
#
#
# Revision: 0
# Processed by: cddbd v1.5.1PL2 Copyright (c) Steve Scherf et al.
# Submitted via: FreeRIP 2.93 
#
DISCID=ab08280e
DTITLE=diverse - 14 berühmte Märsche
DYEAR=1900
DGENRE=Marsch
TTITLE0=Radetzky Marsch
TTITLE1=Marsch aus Petersburg
TTITLE2=Steinmetz-Marsch
TTITLE3=Fridericus-Rex-Grenadiermarsch
TTITLE4=Gruß an Kiel
TTITLE5=Frei weg
TTITLE6=Alexandermarsch
TTITLE7=Bayrischer Defiliermarsch
TTITLE8=Egerländer Marsch
TTITLE9=Kärntner Liedermarsch
TTITLE10=Unter dem Doppeladler
TTITLE11=Schönfeld Marsch
TTITLE12=Deutschmeister Regimentsmarsch
TTITLE13=Unter dem Grillenbanner
EXTD=
EXTT0=
EXTT1=
EXTT2=
EXTT3=
EXTT4=
EXTT5=
EXTT6=
EXTT7=
EXTT8=
EXTT9=
EXTT10=
EXTT11=
EXTT12=
EXTT13=
PLAYORDER=
